<svg width="58" height="48" viewBox="0 0 58 48" fill="none" xmlns="http://www.w3.org/2000/svg">
<path d="M0.541361 22.6929L22.7547 0.49644C23.1057 0.169708 23.5698 -0.0081642 24.0494 0.000290667C24.5289 0.00874553 24.9865 0.20287 25.3256 0.541768C25.6648 0.880665 25.8591 1.33788 25.8675 1.81707C25.876 2.29627 25.698 2.76005 25.371 3.11069L6.31993 22.1503L56.1489 22.1503C56.6398 22.1503 57.1107 22.3452 57.4578 22.6921C57.805 23.0389 58 23.5094 58 24C58 24.4906 57.805 24.9611 57.4578 25.3079C57.1107 25.6548 56.6398 25.8497 56.1489 25.8497L6.31993 25.8497L25.371 44.8893C25.698 45.24 25.876 45.7037 25.8675 46.1829C25.8591 46.6621 25.6648 47.1193 25.3256 47.4582C24.9865 47.7971 24.5289 47.9913 24.0494 47.9997C23.5698 48.0082 23.1057 47.8303 22.7548 47.5036L0.541361 25.3071C0.194708 24.9603 -2.32913e-06 24.4902 -2.37198e-06 24C-2.41483e-06 23.5098 0.194708 23.0397 0.541361 22.6929Z" fill="#424242"/>
</svg>
