<svg width="338" height="405" viewBox="0 0 338 405" fill="none" xmlns="http://www.w3.org/2000/svg">
<path fill-rule="evenodd" clip-rule="evenodd" d="M335.67 1.76668H303.87V33.567H335.67L335.67 1.76668ZM1.01879e-05 203.169V234.969V236.736V268.536V270.303V302.103V303.87V335.67V337.437V369.237V371.004V402.804L0 404.571H1.76668H33.567H35.3337H67.134H68.9007H100.701H102.468H134.268H136.035H167.835H169.602H201.402H203.169H234.969H236.736H268.536H270.303H302.103H303.87H335.67H337.437L337.437 1.76668H335.67V0H2.34762e-05L2.34762e-05 1.76668L1.01879e-05 33.567V35.3337V67.134V68.9007V100.701V102.468V134.268V136.035V167.835V169.602V201.402V203.169ZM1.7667 203.169L1.76669 234.969H33.567V203.169H1.7667ZM35.3337 203.169V234.969H67.134V203.169H35.3337ZM68.9007 203.169V234.969H100.701V203.169H68.9007ZM102.468 203.169V234.969H134.268V203.169H102.468ZM136.035 203.169V234.969H167.835V203.169H136.035ZM169.602 203.169V234.969H201.402V203.169H169.602ZM203.169 203.169V234.969H234.969V203.169H203.169ZM236.736 203.169V234.969H268.536V203.169H236.736ZM270.303 203.169V234.969H302.103V203.169H270.303ZM303.87 203.169V234.969H335.67V203.169H303.87ZM1.7667 201.402H33.567V169.602H1.7667L1.7667 201.402ZM35.3337 201.402H67.134V169.602H35.3337V201.402ZM68.9007 201.402H100.701V169.602H68.9007V201.402ZM102.468 201.402H134.268V169.602H102.468V201.402ZM136.035 201.402H167.835V169.602H136.035V201.402ZM169.602 201.402H201.402V169.602H169.602V201.402ZM203.169 201.402H234.969V169.602H203.169V201.402ZM236.736 201.402H268.536V169.602H236.736V201.402ZM270.303 201.402H302.103V169.602H270.303V201.402ZM303.87 201.402H335.67V169.602H303.87V201.402ZM303.87 35.3337H335.67V67.134H303.87V35.3337ZM303.87 68.9007H335.67V100.701H303.87V68.9007ZM303.87 102.468H335.67V134.268H303.87V102.468ZM303.87 136.035H335.67V167.835H303.87V136.035ZM303.87 236.736H335.67V268.536H303.87V236.736ZM303.87 270.303H335.67V302.103H303.87V270.303ZM303.87 303.87H335.67V335.67H303.87V303.87ZM303.87 337.437H335.67V369.237H303.87V337.437ZM303.87 371.004H335.67V402.804H303.87V371.004ZM1.76669 236.736L1.76669 268.536H33.567V236.736H1.76669ZM35.3337 236.736V268.536H67.134V236.736H35.3337ZM68.9007 236.736V268.536H100.701V236.736H68.9007ZM102.468 236.736V268.536H134.268V236.736H102.468ZM136.035 236.736V268.536H167.835V236.736H136.035ZM169.602 236.736V268.536H201.402V236.736H169.602ZM203.169 236.736V268.536H234.969V236.736H203.169ZM236.736 236.736V268.536H268.536V236.736H236.736ZM270.303 236.736V268.536H302.103V236.736H270.303ZM270.303 1.76668H302.103V33.567H270.303V1.76668ZM270.303 35.3337H302.103V67.134H270.303V35.3337ZM270.303 68.9007H302.103V100.701H270.303V68.9007ZM270.303 102.468H302.103V134.268H270.303V102.468ZM270.303 136.035H302.103V167.835H270.303V136.035ZM270.303 270.303H302.103V302.103H270.303V270.303ZM270.303 303.87H302.103V335.67H270.303V303.87ZM270.303 337.437H302.103V369.237H270.303V337.437ZM270.303 371.004H302.103V402.804H270.303V371.004ZM1.76669 270.303L1.76669 302.103H33.567V270.303H1.76669ZM35.3337 270.303V302.103H67.134V270.303H35.3337ZM68.9007 270.303V302.103H100.701V270.303H68.9007ZM102.468 270.303V302.103H134.268V270.303H102.468ZM136.035 270.303V302.103H167.835V270.303H136.035ZM169.602 270.303V302.103H201.402V270.303H169.602ZM203.169 270.303V302.103H234.969V270.303H203.169ZM236.736 270.303V302.103H268.536V270.303H236.736ZM236.736 1.76668H268.536V33.567H236.736V1.76668ZM236.736 35.3337H268.536V67.134H236.736V35.3337ZM236.736 68.9007H268.536V100.701H236.736V68.9007ZM236.736 102.468H268.536V134.268H236.736V102.468ZM236.736 136.035H268.536V167.835H236.736V136.035ZM236.736 303.87H268.536V335.67H236.736V303.87ZM236.736 337.437H268.536V369.237H236.736V337.437ZM236.736 371.004H268.536V402.804H236.736V371.004ZM1.76669 303.87L1.76669 335.67H33.567V303.87H1.76669ZM35.3337 303.87V335.67H67.134V303.87H35.3337ZM68.9007 303.87V335.67H100.701V303.87H68.9007ZM102.468 303.87V335.67H134.268V303.87H102.468ZM136.035 303.87V335.67H167.835V303.87H136.035ZM169.602 303.87V335.67H201.402V303.87H169.602ZM203.169 303.87V335.67H234.969V303.87H203.169ZM203.169 1.76668H234.969V33.567H203.169V1.76668ZM203.169 35.3337H234.969V67.134H203.169V35.3337ZM203.169 68.9007H234.969V100.701H203.169V68.9007ZM203.169 102.468H234.969L234.969 134.268H203.169V102.468ZM203.169 136.035H234.969V167.835H203.169V136.035ZM203.169 337.437H234.969V369.237H203.169V337.437ZM203.169 371.004H234.969V402.804H203.169V371.004ZM1.76669 337.437L1.76669 369.237H33.567V337.437H1.76669ZM35.3337 337.437V369.237H67.134V337.437H35.3337ZM68.9007 337.437V369.237H100.701V337.437H68.9007ZM102.468 337.437V369.237H134.268V337.437H102.468ZM136.035 337.437V369.237H167.835V337.437H136.035ZM169.602 337.437V369.237H201.402V337.437H169.602ZM169.602 1.76668H201.402V33.567H169.602V1.76668ZM136.035 1.76668H167.835V33.567H136.035V1.76668ZM102.468 1.76668H134.268V33.567H102.468V1.76668ZM68.9007 1.76668H100.701V33.567H68.9007V1.76668ZM35.3337 1.76668H67.134V33.567H35.3337V1.76668ZM1.76671 1.76668H33.567V33.567H1.76671L1.76671 1.76668ZM201.402 402.804V371.004H169.602V402.804H201.402ZM201.402 167.835V136.035H169.602V167.835H201.402ZM201.402 134.268L201.402 102.468H169.602V134.268H201.402ZM201.402 100.701V68.9007H169.602V100.701H201.402ZM201.402 67.134V35.3337H169.602V67.134H201.402ZM1.76668 402.804L1.76669 371.004H33.567V402.804H1.76668ZM35.3337 402.804V371.004H67.134V402.804H35.3337ZM68.9007 402.804V371.004H100.701V402.804H68.9007ZM102.468 402.804V371.004H134.268V402.804H102.468ZM136.035 402.804V371.004H167.835V402.804H136.035ZM167.835 35.3337H136.035V67.134H167.835V35.3337ZM134.268 35.3337H102.468V67.134H134.268V35.3337ZM100.701 35.3337H68.9007V67.134H100.701V35.3337ZM67.134 35.3337H35.3337V67.134H67.134V35.3337ZM33.567 35.3337H1.76671L1.7667 67.134H33.567V35.3337ZM136.035 68.9007H167.835V100.701H136.035V68.9007ZM136.035 102.468H167.835L167.835 134.268H136.035V102.468ZM136.035 136.035H167.835V167.835H136.035V136.035ZM1.7667 100.701L1.7667 68.9007H33.567V100.701H1.7667ZM35.3337 100.701V68.9007H67.134V100.701H35.3337ZM68.9007 100.701V68.9007H100.701V100.701H68.9007ZM102.468 100.701V68.9007H134.268V100.701H102.468ZM134.268 167.835V136.035H102.468V167.835H134.268ZM134.268 134.268L134.268 102.468H102.468V134.268H134.268ZM1.7667 134.268L1.7667 102.468H33.567V134.268H1.7667ZM35.3337 134.268V102.468H67.134V134.268H35.3337ZM68.9007 134.268V102.468H100.701V134.268H68.9007ZM100.701 167.835V136.035H68.9007V167.835H100.701ZM1.7667 167.835L1.7667 136.035H33.567V167.835H1.7667ZM35.3337 167.835V136.035H67.134V167.835H35.3337Z" fill="url(#paint0_linear_0_193)"/>
<defs>
<linearGradient id="paint0_linear_0_193" x1="100.851" y1="-154.102" x2="247.381" y2="343.057" gradientUnits="userSpaceOnUse">
<stop stop-color="#849FFF"/>
<stop offset="1" stop-color="#4C577D" stop-opacity="0"/>
</linearGradient>
</defs>
</svg>
