<svg width="99" height="99" viewBox="0 0 99 99" fill="none" xmlns="http://www.w3.org/2000/svg">
<circle cx="49.5" cy="49.5" r="49.5" fill="#0277BD"/>
<g clip-path="url(#clip0_0_219)">
<path d="M64.875 24H35.125C27.8763 24 22 29.8763 22 37.125V66.875C22 74.1237 27.8763 80 35.125 80H64.875C72.1237 80 78 74.1237 78 66.875V37.125C78 29.8763 72.1237 24 64.875 24Z" fill="#0277BD"/>
<path d="M33.7585 46.4549L34.3845 53.4422H50.021V46.4549H33.7585ZM50.0208 32.3125H32.5L33.1352 39.2998H50.0208V32.3125ZM50.0208 71.8715V64.6018L49.9902 64.6098L42.2083 62.5088L41.7109 56.9359H34.6967L35.6756 67.9071L49.9886 71.8804L50.0208 71.8715Z" fill="#EBEBEB"/>
<path d="M58.6009 53.4422L57.7897 62.5042L49.9968 64.6077V71.8769L64.3212 67.9071L64.4262 66.7265L66.0681 48.3313L66.2385 46.4549L67.5 32.3125H49.9968V39.2998H59.8425L59.2068 46.4549H49.9968V53.4422H58.6009Z" fill="white"/>
</g>
<defs>
<clipPath id="clip0_0_219">
<rect width="56" height="56" fill="white" transform="translate(22 24)"/>
</clipPath>
</defs>
</svg>
