<svg width="99" height="99" viewBox="0 0 99 99" fill="none" xmlns="http://www.w3.org/2000/svg">
<circle cx="49.5" cy="49.5" r="49.5" fill="#2396ED"/>
<path d="M58.0111 46.4325H65.8835V39.2906H58.0111V46.4325ZM48.6395 46.4325H56.5116V39.2906H48.6395V46.4325ZM39.4549 46.4325H47.3274V39.2906H39.4549V46.4325ZM30.2703 46.4325H37.9558V39.2906H30.2707L30.2703 46.4325ZM20.8987 46.4325H28.7712V39.2906H20.8987V46.4325ZM30.2707 37.7871H37.9554V30.6455H30.2707V37.7871ZM39.4553 37.7871H47.3274V30.6455H39.4549L39.4553 37.7871ZM48.6395 37.7871H56.5116V30.6455H48.6395V37.7871ZM48.6395 29.1416H56.5116V22H48.6395V29.1416ZM91 43.238C91 43.238 87.626 40.0427 80.691 41.1706C79.9412 35.72 74.1307 32.5251 74.1307 32.5251C74.1307 32.5251 68.6951 39.1031 72.6312 46.4329C71.5068 46.9968 69.6322 47.7486 66.8206 47.7486H15.2759C14.3384 51.3196 14.3384 75 40.2046 75C58.7608 75 72.6312 66.3549 79.1915 50.5674C88.9381 51.3192 91 43.238 91 43.238Z" fill="white"/>
</svg>
