<svg width="99" height="101" viewBox="0 0 99 101" fill="none" xmlns="http://www.w3.org/2000/svg">
<circle cx="49.5" cy="49.5" r="49.5" fill="#ECECEC"/>
<g clip-path="url(#clip0_77_132)">
<path d="M35.7007 34.0307C38.0475 34.8257 40.28 35.9246 42.3413 37.2995C45.2525 36.5555 48.246 36.1817 51.2507 36.187C54.3538 36.187 57.3476 36.5745 60.1538 37.2964C62.2144 35.9229 64.4458 34.825 66.7913 34.0307C68.9695 33.2901 72.0726 32.0901 73.9163 34.1307C75.1663 35.5182 75.4788 37.8432 75.7007 39.6182C75.9507 41.5995 76.0101 44.1807 75.3538 46.7432C77.8632 49.9839 79.3757 53.8495 79.3757 58.062C79.3757 64.4432 75.9195 69.9839 70.8038 73.8214C68.3419 75.6449 65.6114 77.0745 62.7101 78.0589C63.3788 79.5901 63.7507 81.2839 63.7507 83.062V92.437C63.7507 93.2658 63.4215 94.0606 62.8354 94.6467C62.2494 95.2327 61.4545 95.562 60.6257 95.562H41.8757C41.0469 95.562 40.2521 95.2327 39.666 94.6467C39.08 94.0606 38.7507 93.2658 38.7507 92.437V89.3401C35.7663 89.7057 33.2632 89.3807 31.1351 88.4776C28.9101 87.5339 27.3601 86.0714 26.1945 84.6714C25.0882 83.3464 23.882 80.3589 22.1382 79.7776C21.7488 79.6479 21.3887 79.4428 21.0785 79.174C20.7683 78.9051 20.5141 78.5778 20.3304 78.2107C19.9595 77.4694 19.8982 76.611 20.1601 75.8245C20.422 75.038 20.9856 74.3877 21.727 74.0167C22.4683 73.6457 23.3267 73.5845 24.1132 73.8464C26.1945 74.5401 27.5507 76.0401 28.4788 77.2464C29.9788 79.1839 31.1976 81.7151 33.5726 82.7245C34.5507 83.1401 35.9851 83.412 38.2288 83.1057L38.7507 82.9995C38.7567 81.2988 39.1108 79.6174 39.7913 78.0589C36.89 77.0745 34.1595 75.6449 31.6976 73.8214C26.582 69.9839 23.1257 64.4464 23.1257 58.062C23.1257 53.8557 24.6351 49.9932 27.1382 46.7557C26.482 44.1932 26.5382 41.6057 26.7882 39.6214L26.8038 39.5026C27.032 37.6839 27.2976 35.5432 28.5726 34.1307C30.4163 32.0901 33.5226 33.2932 35.6976 34.0339L35.7007 34.0307Z" fill="black"/>
</g>
<defs>
<clipPath id="clip0_77_132">
<rect width="75" height="75" fill="white" transform="translate(13 26)"/>
</clipPath>
</defs>
</svg>
