<svg width="99" height="99" viewBox="0 0 99 99" fill="none" xmlns="http://www.w3.org/2000/svg">
<circle cx="49.5" cy="49.5" r="49.5" fill="#E14E1D"/>
<g clip-path="url(#clip0_77_144)">
<path d="M67.8281 17H31.1719C22.2404 17 15 24.2404 15 33.1719V69.8281C15 78.7596 22.2404 86 31.1719 86H67.8281C76.7596 86 84 78.7596 84 69.8281V33.1719C84 24.2404 76.7596 17 67.8281 17Z" fill="#E14E1D"/>
<path d="M27.9375 27.2422L30.2582 53.277H60.098L59.0967 64.4437L49.4889 67.0414L39.8993 64.4475L39.2581 57.2774H30.6166L31.8524 71.0992L49.4871 75.9972L67.1441 71.0992L69.5113 44.6687H38.1322L37.3444 35.8524H70.2914L71.0625 27.2422H27.9375Z" fill="white"/>
<path d="M49.5 27.2422H27.9375L30.2582 53.277H49.5V44.6687H38.1322L37.3444 35.8524H49.5V27.2422ZM49.5 67.0377L49.4889 67.0414L39.8993 64.4475L39.2581 57.2774H30.6166L31.8524 71.0992L49.4871 75.9972L49.5003 75.9934L49.5 67.0377Z" fill="#EBEBEB"/>
</g>
<defs>
<clipPath id="clip0_77_144">
<rect width="69" height="69" fill="white" transform="translate(15 17)"/>
</clipPath>
</defs>
</svg>
