<svg width="99" height="99" viewBox="0 0 99 99" fill="none" xmlns="http://www.w3.org/2000/svg">
<circle cx="49.5" cy="49.5" r="49.5" fill="#FFC32A"/>
<g clip-path="url(#clip0_0_212)">
<path d="M19 17H84V82H19V17Z" fill="#FFC42B"/>
<path d="M36.0911 71.3188L41.0651 68.3085C42.0249 70.0099 42.8978 71.4495 44.9918 71.4495C46.9989 71.4495 48.2646 70.6644 48.2646 67.6105V46.8414H54.3728V67.6968C54.3728 74.0234 50.6643 76.9032 45.2535 76.9032C40.3671 76.9032 37.5307 74.3725 36.0908 71.3183M57.6906 70.6642L62.6641 67.7846C63.9735 69.9228 65.6752 71.4935 68.6855 71.4935C71.2167 71.4935 72.8306 70.228 72.8306 68.4826C72.8306 66.3884 71.1725 65.6465 68.3801 64.4252L66.8533 63.7701C62.4463 61.8945 59.5231 59.5383 59.5231 54.5643C59.5231 49.9828 63.0135 46.4921 68.4677 46.4921C72.3509 46.4921 75.1434 47.8449 77.1503 51.379L72.3941 54.4335C71.3467 52.5574 70.2128 51.8157 68.4674 51.8157C66.6784 51.8157 65.544 52.9502 65.544 54.4335C65.544 56.2659 66.6784 57.0081 69.2962 58.1426L70.8232 58.7969C76.0155 61.0224 78.9388 63.291 78.9388 68.3955C78.9388 73.8936 74.6193 76.9039 68.8163 76.9039C63.1443 76.9039 59.4791 74.1988 57.6904 70.6644" fill="black"/>
</g>
<defs>
<clipPath id="clip0_0_212">
<rect width="65" height="65" fill="white" transform="translate(19 17)"/>
</clipPath>
</defs>
</svg>
