<svg width="99" height="99" viewBox="0 0 99 99" fill="none" xmlns="http://www.w3.org/2000/svg">
<circle cx="49.5" cy="49.5" r="49.5" fill="black"/>
<g clip-path="url(#clip0_78_179)">
<path d="M54.0153 17.2125C53.5383 17.2125 53.0612 17.3182 52.6373 17.4771C53.5383 18.0604 54.0153 18.8551 54.2804 19.7561C54.2804 19.8624 54.3336 19.9686 54.3336 20.0744C54.3336 20.1806 54.3867 20.2863 54.3867 20.392C54.4398 21.9295 53.9622 22.1414 53.6445 23.0424C53.1143 24.208 53.2737 25.4803 53.9096 26.4871C53.9627 26.5933 54.0159 26.7527 54.1216 26.8584C53.4326 22.4065 57.1423 21.7701 57.8313 20.392C57.8844 19.1734 56.8777 18.3786 56.0824 17.7953C55.2877 17.3182 54.6512 17.212 54.0159 17.212L54.0153 17.2125ZM59.5812 18.1656C59.5281 18.5895 59.5812 18.4838 59.5281 18.6958C59.5281 18.8546 59.5281 19.0134 59.475 19.1728C59.4219 19.3317 59.4219 19.4379 59.3687 19.5968C59.3156 19.7561 59.263 19.8618 59.2099 20.0207C59.1568 20.1269 59.1037 20.2327 59.0505 20.3915C58.9979 20.4446 58.9448 20.5509 58.8922 20.604C58.8391 20.6571 58.8391 20.7097 58.786 20.7629C58.6797 20.8691 58.6266 21.0274 58.5209 21.1337L58.2032 21.4519C58.0969 21.5581 57.9907 21.6639 57.885 21.7164C57.5142 21.9821 57.0902 22.1935 56.7189 22.4586C56.6126 22.5648 56.4538 22.618 56.3481 22.7237C56.2418 22.8299 56.1356 22.8831 56.0298 22.9888L55.7122 23.3065C55.6059 23.4127 55.4997 23.519 55.4465 23.6778C55.3408 23.7841 55.2877 23.9429 55.182 24.0486C55.1288 24.208 55.0757 24.3137 54.97 24.4726C54.9169 24.6319 54.8637 24.7382 54.8106 24.8965C54.7575 25.0559 54.7049 25.2147 54.7049 25.3204C54.7049 25.3736 54.7049 25.4798 54.6518 25.5329C54.6518 25.5861 54.6518 25.6918 54.5987 25.7449V26.4865C54.5987 26.6459 54.5987 26.7522 54.6518 26.9105C54.6518 27.0699 54.7049 27.1761 54.758 27.3349C54.8112 27.4938 54.8643 27.5995 54.9174 27.7589C54.97 27.8651 55.0231 27.9177 55.0231 28.024L50.9947 26.4865C50.3302 26.2853 49.6586 26.1086 48.9812 25.9569C48.6099 25.8506 48.2391 25.7975 47.8677 25.6913C46.8161 25.4807 45.7548 25.3216 44.6877 25.2147H44.5814C43.5216 25.1085 42.5148 25.0554 41.455 25.0554C40.6597 25.0554 39.9176 25.1085 39.1759 25.1616C38.1156 25.2147 37.0562 25.3741 35.9959 25.5329L35.2006 25.6918C34.6709 25.798 34.1407 25.9038 33.6106 26.0626C33.3455 26.1157 33.0809 26.222 32.8158 26.2751C32.5507 26.3808 32.2856 26.4865 32.0737 26.5928C31.8617 26.699 31.7028 26.7522 31.4909 26.8579C31.4377 26.8579 31.4377 26.8579 31.3846 26.911C31.2252 27.0167 31.0669 27.0698 30.9076 27.1756C30.8544 27.1756 30.8013 27.2287 30.8013 27.2287C30.5899 27.3349 30.4305 27.4412 30.2717 27.4938C30.1654 27.5469 30.0066 27.6 29.9008 27.6532C29.8477 27.7058 29.7946 27.7058 29.7415 27.7589C29.5826 27.8651 29.4238 27.9177 29.2644 28.0234C29.1056 28.1297 28.9467 28.1828 28.8405 28.2891C28.7342 28.3948 28.5754 28.4479 28.4697 28.5536C28.4697 28.5536 28.4165 28.5536 28.4165 28.6068C28.3103 28.6599 28.2046 28.7661 28.0988 28.8719L28.0457 28.925C27.9395 28.9781 27.8863 29.0838 27.7806 29.1369C27.7275 29.1369 27.7275 29.1901 27.6744 29.1901C27.5687 29.2432 27.5155 29.3489 27.4098 29.4015C27.4098 29.4546 27.3567 29.4546 27.3567 29.4546L27.0385 29.7728L26.9853 29.826L26.6677 30.1437C26.6677 30.1437 26.6677 30.1968 26.6145 30.1968L26.3494 30.4619C26.2963 30.515 26.2432 30.515 26.2432 30.5681L25.9255 30.8858C25.9255 30.9389 25.8724 30.9389 25.8724 30.9921L25.4484 31.4155L25.3953 31.4686C25.1307 31.7868 24.8125 32.0519 24.4948 32.317C24.1766 32.5816 23.8584 32.8467 23.4876 33.1118C23.1168 33.3768 22.7986 33.5888 22.4277 33.8008C22.0564 34.0128 21.6856 34.1716 21.3148 34.331C20.9434 34.4898 20.5726 34.6487 20.2018 34.7549C19.4597 34.9143 18.7175 35.232 18.0816 35.2846C18.0816 35.02 17.9222 35.0726 17.7634 35.0726C17.6045 35.1257 17.4457 35.1257 17.3394 35.1789C17.1801 35.232 17.0743 35.2851 16.9155 35.3382C16.7643 35.3869 16.6214 35.4582 16.4916 35.5497C16.3853 35.6559 16.2265 35.709 16.1207 35.8153C16.0145 35.921 15.8551 36.0267 15.7494 36.133C15.6432 36.2392 15.4843 36.3449 15.3786 36.4507C15.2723 36.5569 15.1661 36.6632 15.0604 36.822C14.9541 36.9809 14.8484 37.0866 14.7953 37.2459C14.6896 37.3522 14.6364 37.511 14.5307 37.6699C14.4776 37.8293 14.3713 37.9876 14.3182 38.1469L14.1594 38.624C14.1062 38.7829 14.1062 38.8886 14.0531 39.0479V39.1011C14 39.2604 14 39.4719 14 39.5781C14.0531 39.525 14.0531 39.6313 14.0531 39.737V39.9489C14.0531 40.0552 14.1062 40.1609 14.1062 40.2666C14.1594 40.3729 14.1594 40.4791 14.2125 40.5849C14.2651 40.6911 14.3182 40.7968 14.4239 40.9031C14.4771 41.0093 14.5833 41.115 14.6364 41.2208C14.7422 41.327 14.8479 41.4333 14.9541 41.4859C15.0604 41.5921 15.1661 41.6984 15.2718 41.7509C15.6957 42.1218 15.802 42.228 16.3322 42.5457C16.4384 42.5988 16.491 42.6519 16.5973 42.7051H16.6504V42.8113C16.6504 42.9696 16.7035 43.0759 16.7561 43.2347C16.8092 43.3941 16.8624 43.5529 16.9155 43.6587L17.0738 43.9769C17.0738 44.03 17.1269 44.03 17.1269 44.0831C17.1801 44.242 17.2863 44.3477 17.3394 44.4539C17.4452 44.5602 17.4983 44.719 17.604 44.8248L17.9222 45.143L18.2399 45.4607H18.293C18.3993 45.5669 18.505 45.62 18.6112 45.7263C18.7175 45.8325 18.8763 45.8851 18.9821 45.9377C19.0883 45.9909 19.2472 46.0971 19.406 46.1502C19.5122 46.2034 19.6185 46.2559 19.7768 46.2559C19.7768 46.2559 19.8299 46.2559 19.8299 46.3091C19.8831 46.3091 19.9893 46.3622 20.0424 46.3622C19.9893 47.3158 19.9893 48.2168 20.0956 48.535C20.2539 48.9058 21.0492 47.7929 21.7913 46.5742C21.6851 47.7929 21.6319 49.224 21.7913 49.648C22.0033 50.0719 23.01 48.6939 23.9641 47.2095C36.3662 44.3477 47.7083 52.9338 48.9276 65.0712C48.7151 63.163 46.3829 62.1031 45.2704 62.3682C44.7402 63.64 43.8392 65.3363 42.4086 66.343C42.5143 65.1769 42.4617 64.0108 42.2492 62.8453C41.8784 64.4353 41.1362 65.9722 40.0764 67.244C38.4332 67.3503 36.7375 66.555 35.8891 65.3363C35.836 65.2832 35.7828 65.1769 35.7302 65.1238C35.6771 65.0181 35.624 64.8593 35.5709 64.753C35.5177 64.6468 35.4652 64.4879 35.4652 64.3822V63.7463C35.4652 63.64 35.5183 63.4807 35.5714 63.3749C35.6245 63.2692 35.6245 63.1098 35.6777 63.0041C35.7302 62.8979 35.7834 62.739 35.8891 62.6333C36.2073 61.7849 36.2073 61.0959 35.624 60.7251L35.3063 60.5657C35.2532 60.5657 35.1469 60.5131 35.0938 60.5131C35.0407 60.5131 34.9881 60.46 34.935 60.46C34.8292 60.4068 34.6704 60.4069 34.5642 60.3537C34.4579 60.3006 34.2991 60.3006 34.1933 60.3006C34.0871 60.3006 33.9277 60.248 33.822 60.248H33.5574C33.3981 60.248 33.2918 60.248 33.1861 60.3011C33.0798 60.3011 32.921 60.3543 32.8153 60.3543C32.709 60.4074 32.5502 60.4074 32.4439 60.4605C32.3382 60.5131 32.232 60.5662 32.0731 60.6188L31.7549 60.7782C27.6738 63.4281 30.1123 69.6819 32.8684 71.4839C31.808 71.6964 30.7482 71.9079 30.43 72.1204L30.3768 72.1735C31.119 72.65 31.9143 73.0214 32.7622 73.3391C33.8751 73.7104 35.0943 74.0281 35.624 74.1875C37.0552 74.5052 38.5395 74.6114 40.0233 74.5052C47.7615 73.975 54.1216 68.0393 55.2872 60.3011C55.3403 60.4605 55.3403 60.6188 55.3934 60.7782C55.4465 61.0959 55.4997 61.4141 55.5528 61.7849C55.6059 61.9443 55.6059 62.1031 55.6059 62.262V62.3151C55.6059 62.4745 55.6585 62.6333 55.6585 62.7922C55.6585 63.0041 55.7116 63.163 55.7116 63.3749V65.6009C55.7116 65.7603 55.6585 65.8665 55.6585 66.0253V66.1842C55.6585 66.3436 55.6054 66.5024 55.6054 66.7144C55.5522 66.8732 55.5522 67.0321 55.4991 67.1914V67.2446C55.446 67.4034 55.446 67.5623 55.3934 67.7211V67.7742C55.3403 67.9336 55.3403 68.0924 55.2872 68.2513V68.3044L55.1283 68.7815V68.8346C55.0752 68.9934 55.0221 69.2054 54.9695 69.3643C54.9163 69.5236 54.8632 69.6825 54.757 69.8944C54.7044 70.0533 54.6512 70.2653 54.5455 70.4241C54.4924 70.5835 54.3862 70.7423 54.333 70.9543C54.2804 71.1137 54.1742 71.2725 54.1216 71.4313C54.1216 71.4845 54.0685 71.5376 54.0685 71.5376C54.0685 71.5376 54.0685 71.5907 54.0153 71.5907C52.9024 73.8693 51.2066 75.8832 49.0864 77.4733C48.927 77.5795 48.8213 77.6858 48.6625 77.7915C48.6093 77.8446 48.5562 77.8446 48.5562 77.8977C48.45 78.0034 48.2911 78.0566 48.1854 78.1623L48.2385 78.2685C48.5031 78.2154 48.7156 78.2154 48.9802 78.1623C49.4572 78.1092 49.8812 78.0029 50.3582 77.8972C50.4645 77.8972 50.6238 77.8441 50.7296 77.7909C50.8358 77.7909 50.8884 77.7378 50.9941 77.7378C51.0998 77.7378 51.2597 77.6852 51.3655 77.6852C51.4717 77.6321 51.5774 77.6321 51.6832 77.579C53.4326 77.1556 55.1283 76.5723 56.7715 75.8832C53.9622 79.6992 50.2525 82.7735 45.9063 84.787C47.9203 84.6281 49.9343 84.3104 51.8951 83.7271C58.9365 81.6595 64.8784 76.8985 68.4313 70.4772C67.6897 74.5052 66.0992 78.3743 63.7144 81.7663C65.4107 80.6533 66.9476 79.3278 68.3787 77.8972C72.3004 73.8161 74.8972 68.569 75.7456 63.0041C76.3289 65.7603 76.5409 68.6221 76.2758 71.4313C88.9429 53.7822 77.3356 35.4971 72.4598 30.6739C72.4598 30.6207 72.4067 30.6207 72.4067 30.5676C72.4067 30.7801 72.4067 30.9915 72.3536 31.204C72.3004 31.628 72.2473 31.9988 72.1942 32.3696C72.0885 32.7409 71.9827 33.1649 71.8765 33.5357C71.7702 33.907 71.6114 34.2779 71.4526 34.6487C71.2932 35.02 71.1343 35.3908 70.9224 35.709C70.7104 36.0273 70.4984 36.3981 70.2865 36.7158C70.0745 37.034 69.8094 37.3517 69.5443 37.6699C69.2797 37.9881 69.0147 38.2527 68.6964 38.5709C68.5371 38.7303 68.3787 38.8891 68.1668 38.9948C68.0074 39.1011 67.9012 39.2073 67.7423 39.3656C67.4246 39.6313 67.1064 39.8427 66.7356 40.0547C66.4174 40.2672 66.0466 40.4791 65.6757 40.638L64.5622 41.115C64.1914 41.2739 63.8206 41.3801 63.4493 41.4859C63.0785 41.5921 62.6545 41.6984 62.2832 41.7509C61.8592 41.8041 61.4884 41.8572 61.1176 41.9103C60.852 41.9103 60.5343 41.9629 60.2692 41.9629C59.8453 41.9629 59.4745 41.9098 59.1037 41.9098C58.6792 41.8567 58.3084 41.8035 57.9376 41.7504C57.5355 41.7015 57.1427 41.5945 56.7715 41.4327C57.1423 41.3796 57.5662 41.3796 57.9376 41.2739C58.3615 41.2208 58.7323 41.1145 59.1037 41.0088C59.4745 40.9025 59.8984 40.7968 60.2166 40.638L61.3296 40.1609C61.7004 40.0015 62.0186 39.7901 62.3894 39.5781C62.7076 39.3656 63.0785 39.1011 63.3967 38.8891C63.7144 38.6235 64.0326 38.3589 64.2977 38.0938C64.6154 37.8287 64.8805 37.511 65.1456 37.2459C65.4107 36.9277 65.6757 36.61 65.8877 36.2918C65.9408 36.2387 65.9408 36.1856 65.994 36.1324C66.1523 35.8679 66.3642 35.5497 66.5236 35.2851C66.7213 34.9426 66.8981 34.5885 67.0533 34.2247C67.2126 33.8539 67.372 33.4826 67.4777 33.1118L67.7954 31.9988C67.8486 31.5748 67.9548 31.204 67.9548 30.8327C68.0079 30.4088 68.0079 30.0379 68.0079 29.6666C68.0079 29.402 68.0079 29.0838 67.9548 28.8187C67.9017 28.3948 67.8486 28.024 67.7954 27.6526C67.7423 27.2287 67.6361 26.8579 67.5303 26.4865C67.4241 26.1157 67.2652 25.7449 67.1595 25.3736C67.0002 25.0028 66.8413 24.6319 66.6825 24.3137C66.4705 23.9429 66.3117 23.6247 66.0997 23.2539C65.8872 22.9357 65.6226 22.6174 65.4107 22.2998C65.1456 21.9815 64.8805 21.7164 64.6154 21.3988C64.4565 21.2394 64.2977 21.0805 64.1383 20.9748C63.3436 20.3389 62.5483 19.8087 61.7004 19.2785C61.5942 19.2254 61.4884 19.1723 61.3296 19.1192C60.6406 18.5369 60.1109 18.3775 59.5812 18.1656Z" fill="#DF234F"/>
</g>
<defs>
<clipPath id="clip0_78_179">
<rect width="68" height="68" fill="white" transform="translate(14 17)"/>
</clipPath>
</defs>
</svg>
