<svg width="99" height="99" viewBox="0 0 99 99" fill="none" xmlns="http://www.w3.org/2000/svg">
<circle cx="49.5" cy="49.5" r="49.5" fill="white"/>
<circle cx="49.5" cy="49.5" r="49.5" fill="white"/>
<g clip-path="url(#clip0_78_150)">
<path d="M49.0315 74.8529C48.7506 74.8529 48.4883 74.7778 48.2446 74.6464L45.7528 73.1635C45.378 72.9569 45.5654 72.8819 45.678 72.8444C46.1837 72.6754 46.2774 72.6378 46.802 72.3376C46.8583 72.2999 46.9333 72.3188 46.9894 72.3563L48.9005 73.5014C48.9754 73.5389 49.0691 73.5389 49.1252 73.5014L56.6009 69.1651C56.6758 69.1275 56.7134 69.0523 56.7134 68.9586V60.3049C56.7134 60.2108 56.6758 60.1359 56.6009 60.0983L49.1252 55.7808C49.0503 55.7431 48.9566 55.7431 48.9005 55.7808L41.4249 60.0983C41.35 60.1358 41.3123 60.2297 41.3123 60.3047V68.9585C41.3123 69.0337 41.35 69.1274 41.4249 69.1651L43.4671 70.3476C44.5725 70.9107 45.2657 70.2538 45.2657 69.5968V61.0556C45.2657 60.943 45.3594 60.8303 45.4906 60.8303H46.446C46.5585 60.8303 46.6709 60.9242 46.6709 61.0556V69.5968C46.6709 71.0797 45.8652 71.9433 44.46 71.9433C44.0291 71.9433 43.6919 71.9433 42.7363 71.4739L40.7691 70.3476C40.282 70.0662 39.9822 69.5404 39.9822 68.9773V60.3235C39.9822 59.7604 40.282 59.2347 40.7691 58.9532L48.2446 54.6169C48.7131 54.3541 49.3502 54.3541 49.8186 54.6169L57.2941 58.9532C57.7812 59.2347 58.0811 59.7604 58.0811 60.3235V68.9773C58.0811 69.5404 57.7812 70.0662 57.2941 70.3476L49.8186 74.6839C49.5749 74.7967 49.2938 74.8529 49.0315 74.8529ZM51.3362 68.9023C48.0576 68.9023 47.383 67.4005 47.383 66.1241C47.383 66.0113 47.4767 65.8988 47.6079 65.8988H48.5821C48.6945 65.8988 48.7882 65.9738 48.7882 66.0865C48.9381 67.0814 49.369 67.5694 51.355 67.5694C52.9288 67.5694 53.6035 67.2128 53.6035 66.368C53.6035 65.8799 53.4159 65.5234 50.9616 65.2793C48.9193 65.0727 47.6453 64.6223 47.6453 62.9892C47.6453 61.4686 48.9195 60.5675 51.0553 60.5675C53.4534 60.5675 54.6338 61.3936 54.7838 63.1955C54.7838 63.252 54.765 63.3082 54.7275 63.3645C54.6899 63.4021 54.6338 63.4396 54.5776 63.4396H53.6033C53.5096 63.4396 53.4159 63.3645 53.3973 63.2707C53.1724 62.2383 52.5916 61.9003 51.0553 61.9003C49.3316 61.9003 49.1254 62.5011 49.1254 62.9515C49.1254 63.4959 49.369 63.6648 51.6922 63.9652C53.9968 64.2656 55.0835 64.6974 55.0835 66.3116C55.0647 67.9636 53.7158 68.9023 51.3362 68.9023Z" fill="#539E43"/>
<path d="M25.8366 41.0074C25.8366 40.6695 25.6492 40.3502 25.3494 40.1813L17.4054 35.601C17.2741 35.5258 17.1243 35.4883 16.9745 35.4695H16.8995C16.7497 35.4695 16.5997 35.5258 16.4686 35.601L8.52458 40.1813C8.22468 40.3502 8.03745 40.6694 8.03745 41.0074L8.05625 53.3216C8.05625 53.4905 8.14995 53.6594 8.29974 53.7346C8.44969 53.8285 8.63693 53.8285 8.76823 53.7346L13.4897 51.0315C13.7894 50.8626 13.9768 50.5434 13.9768 50.2056V44.4426C13.9768 44.1047 14.164 43.7856 14.4639 43.6167L16.4686 42.4528C16.6185 42.3589 16.7871 42.3212 16.9557 42.3212C17.1243 42.3212 17.2929 42.3589 17.4242 42.4528L19.4289 43.6167C19.7288 43.7856 19.916 44.1046 19.916 44.4426V50.2056C19.916 50.5434 20.1034 50.8626 20.4031 51.0315L25.1246 53.7346C25.1975 53.7806 25.282 53.8051 25.3682 53.8051C25.4543 53.8051 25.5388 53.7806 25.6117 53.7346C25.7617 53.6594 25.8554 53.4905 25.8554 53.3216L25.8366 41.0074ZM64.0203 24.0564C63.8705 23.9812 63.6831 23.9812 63.5518 24.0564C63.402 24.1502 63.3083 24.3003 63.3083 24.4692V36.6711C63.3083 36.7836 63.2522 36.8962 63.1397 36.9714C63.0274 37.0276 62.9149 37.0276 62.8025 36.9714L60.8165 35.8263C60.6709 35.7433 60.5063 35.6996 60.3387 35.6996C60.1712 35.6996 60.0065 35.7433 59.8609 35.8263L51.9169 40.4254C51.6172 40.5943 51.4298 40.9135 51.4298 41.2513V50.4307C51.4298 50.7685 51.6172 51.0878 51.9169 51.2567L59.8609 55.8558C60.0065 55.9389 60.1712 55.9826 60.3387 55.9826C60.5063 55.9826 60.6709 55.9389 60.8165 55.8558L68.7605 51.2567C69.0603 51.0878 69.2477 50.7687 69.2477 50.4307V27.5479C69.2477 27.1912 69.0603 26.8723 68.7605 26.7032L64.0203 24.0564ZM63.2897 47.4085C63.2897 47.5024 63.2522 47.5774 63.1772 47.615L60.4605 49.1917C60.4226 49.2103 60.3809 49.2199 60.3387 49.2199C60.2965 49.2199 60.2548 49.2103 60.2169 49.1917L57.5003 47.615C57.4252 47.5774 57.3878 47.4836 57.3878 47.4085V44.2548C57.3878 44.1609 57.4252 44.0859 57.5003 44.0484L60.2169 42.4714C60.2548 42.4529 60.2965 42.4432 60.3387 42.4432C60.3809 42.4432 60.4226 42.4529 60.4605 42.4714L63.1772 44.0484C63.2522 44.0857 63.2897 44.1798 63.2897 44.2548V47.4085ZM90.4566 44.1798C90.7565 44.0109 90.9251 43.6917 90.9251 43.3537V41.1199C90.9251 40.7821 90.7377 40.4629 90.4566 40.294L82.5689 35.7138C82.4233 35.6307 82.2586 35.587 82.091 35.587C81.9235 35.587 81.7588 35.6307 81.6132 35.7138L73.6692 40.3127C73.3693 40.4816 73.1821 40.8008 73.1821 41.1386V50.3181C73.1821 50.656 73.3695 50.9751 73.6692 51.144L81.557 55.6492C81.8569 55.8182 82.2129 55.8182 82.494 55.6492L87.2715 52.9839C87.4214 52.9087 87.5151 52.7398 87.5151 52.5709C87.5151 52.402 87.4214 52.2331 87.2715 52.1579L79.29 47.5588C79.1401 47.4649 79.0464 47.3148 79.0464 47.1459V44.2738C79.0464 44.1049 79.1401 43.936 79.29 43.8608L81.7818 42.4341C81.8548 42.3881 81.9392 42.3637 82.0254 42.3637C82.1116 42.3637 82.196 42.3881 82.269 42.4341L84.7609 43.8608C84.9109 43.9547 85.0044 44.1047 85.0044 44.2738V46.5264C85.0044 46.6953 85.0981 46.8643 85.248 46.9393C85.321 46.9853 85.4054 47.0097 85.4916 47.0097C85.5778 47.0097 85.6622 46.9853 85.7352 46.9393L90.4566 44.1798Z" fill="#333333"/>
<path d="M81.9692 43.7479C81.997 43.7295 82.0296 43.7197 82.0629 43.7197C82.0962 43.7197 82.1288 43.7295 82.1566 43.7479L83.6743 44.6302C83.7304 44.6678 83.7678 44.724 83.7678 44.7991V46.5638C83.7678 46.6388 83.7305 46.6952 83.6743 46.7327L82.1566 47.615C82.1288 47.6333 82.0962 47.6431 82.0629 47.6431C82.0296 47.6431 81.997 47.6333 81.9692 47.615L80.4517 46.7327C80.3954 46.6952 80.358 46.6388 80.358 46.5638V44.7992C80.358 44.724 80.3953 44.6677 80.4517 44.6303L81.9692 43.7479Z" fill="#539E43"/>
<path d="M39.1203 35.7513C38.9747 35.6683 38.8101 35.6246 38.6426 35.6246C38.475 35.6246 38.3104 35.6683 38.1648 35.7513L30.2771 40.3125C29.9772 40.4815 29.8086 40.8006 29.8086 41.1385V50.2805C29.8086 50.6183 29.996 50.9374 30.2771 51.1064L38.1648 55.6679C38.3104 55.751 38.475 55.7946 38.6426 55.7946C38.8101 55.7946 38.9747 55.751 39.1203 55.6679L47.0082 51.1064C47.3079 50.9374 47.4767 50.6183 47.4767 50.2805V41.1386C47.4767 40.8008 47.2891 40.4816 47.0082 40.3127L39.1203 35.7513Z" fill="url(#paint0_linear_78_150)"/>
<mask id="mask0_78_150" style="mask-type:luminance" maskUnits="userSpaceOnUse" x="29" y="35" width="19" height="21">
<path d="M39.1203 35.7513C38.9747 35.6683 38.8101 35.6246 38.6426 35.6246C38.475 35.6246 38.3104 35.6683 38.1648 35.7513L30.2771 40.3125C29.9772 40.4815 29.8086 40.8006 29.8086 41.1385V50.2805C29.8086 50.6183 29.996 50.9374 30.2771 51.1064L38.1648 55.6679C38.3104 55.751 38.475 55.7946 38.6426 55.7946C38.8101 55.7946 38.9747 55.751 39.1203 55.6679L47.0082 51.1064C47.3079 50.9374 47.4767 50.6183 47.4767 50.2805V41.1386C47.4767 40.8008 47.2891 40.4816 47.0082 40.3127L39.1203 35.7513Z" fill="white"/>
</mask>
<g mask="url(#mask0_78_150)">
<path d="M47.0269 40.3127L39.1017 35.7513C39.0238 35.7119 38.9422 35.6804 38.858 35.6574L29.9772 50.9002C30.0507 50.9902 30.1396 51.0665 30.2396 51.1255L38.1648 55.6871C38.3897 55.8185 38.652 55.856 38.8955 55.7808L47.2331 40.5006C47.1768 40.4256 47.1018 40.3689 47.0269 40.3127Z" fill="url(#paint1_linear_78_150)"/>
</g>
<mask id="mask1_78_150" style="mask-type:luminance" maskUnits="userSpaceOnUse" x="29" y="35" width="19" height="21">
<path d="M39.1203 35.7513C38.9747 35.6683 38.8101 35.6246 38.6426 35.6246C38.475 35.6246 38.3104 35.6683 38.1648 35.7513L30.2771 40.3125C29.9772 40.4815 29.8086 40.8006 29.8086 41.1385V50.2805C29.8086 50.6183 29.996 50.9374 30.2771 51.1064L38.1648 55.6679C38.3104 55.751 38.475 55.7946 38.6426 55.7946C38.8101 55.7946 38.9747 55.751 39.1203 55.6679L47.0082 51.1064C47.3079 50.9374 47.4767 50.6183 47.4767 50.2805V41.1386C47.4767 40.8008 47.2891 40.4816 47.0082 40.3127L39.1203 35.7513Z" fill="white"/>
</mask>
<g mask="url(#mask1_78_150)">
<path fill-rule="evenodd" clip-rule="evenodd" d="M47.0457 51.1065C47.2705 50.9751 47.4391 50.7498 47.5142 50.5059L38.8204 35.6386C38.5956 35.6011 38.3519 35.6197 38.146 35.7511L30.2769 40.294L38.7642 55.7995C38.8876 55.7792 39.0075 55.7413 39.1201 55.6869L47.0457 51.1065Z" fill="url(#paint2_linear_78_150)"/>
<path fill-rule="evenodd" clip-rule="evenodd" d="M47.0457 51.1065L39.1391 55.6681C39.0275 55.7251 38.9072 55.7632 38.7831 55.7807L38.9331 56.0623L47.7014 50.9753V50.8626L47.4766 50.4871C47.4391 50.7499 47.2705 50.9751 47.0457 51.1065Z" fill="url(#paint3_linear_78_150)"/>
<path fill-rule="evenodd" clip-rule="evenodd" d="M47.0457 51.1065L39.1391 55.6681C39.0275 55.7251 38.9072 55.7632 38.7831 55.7807L38.9331 56.0623L47.7014 50.9753V50.8626L47.4766 50.4871C47.4391 50.7499 47.2705 50.9751 47.0457 51.1065Z" fill="url(#paint4_linear_78_150)"/>
</g>
</g>
<defs>
<linearGradient id="paint0_linear_78_150" x1="1234.56" y1="388.338" x2="367.628" y2="1747.94" gradientUnits="userSpaceOnUse">
<stop stop-color="#41873F"/>
<stop offset="0.3288" stop-color="#418B3D"/>
<stop offset="0.6352" stop-color="#419637"/>
<stop offset="0.9319" stop-color="#3FA92D"/>
<stop offset="1" stop-color="#3FAE2A"/>
</linearGradient>
<linearGradient id="paint1_linear_78_150" x1="776.761" y1="1147.96" x2="2943.94" y2="-27.2193" gradientUnits="userSpaceOnUse">
<stop offset="0.1376" stop-color="#41873F"/>
<stop offset="0.4032" stop-color="#54A044"/>
<stop offset="0.7136" stop-color="#66B848"/>
<stop offset="0.9081" stop-color="#6CC04A"/>
</linearGradient>
<linearGradient id="paint2_linear_78_150" x1="-45.3774" y1="1044.46" x2="1779.84" y2="1044.46" gradientUnits="userSpaceOnUse">
<stop offset="0.09192" stop-color="#6CC04A"/>
<stop offset="0.2864" stop-color="#66B848"/>
<stop offset="0.5968" stop-color="#54A044"/>
<stop offset="0.8624" stop-color="#41873F"/>
</linearGradient>
<linearGradient id="paint3_linear_78_150" x1="-887.479" y1="330.782" x2="937.719" y2="330.782" gradientUnits="userSpaceOnUse">
<stop offset="0.09192" stop-color="#6CC04A"/>
<stop offset="0.2864" stop-color="#66B848"/>
<stop offset="0.5968" stop-color="#54A044"/>
<stop offset="0.8624" stop-color="#41873F"/>
</linearGradient>
<linearGradient id="paint4_linear_78_150" x1="1203.63" y1="-1126.27" x2="739.52" y2="1300.98" gradientUnits="userSpaceOnUse">
<stop stop-color="#41873F"/>
<stop offset="0.3288" stop-color="#418B3D"/>
<stop offset="0.6352" stop-color="#419637"/>
<stop offset="0.9319" stop-color="#3FA92D"/>
<stop offset="1" stop-color="#3FAE2A"/>
</linearGradient>
<clipPath id="clip0_78_150">
<rect width="83" height="51" fill="white" transform="translate(8 24)"/>
</clipPath>
</defs>
</svg>
