<svg width="99" height="99" viewBox="0 0 99 99" fill="none" xmlns="http://www.w3.org/2000/svg">
<path d="M49.5 0C76.725 0 99 22.275 99 49.5C99 76.725 76.725 99 49.5 99C22.275 99 0 76.725 0 49.5C0 22.275 22.275 0 49.5 0ZM39.6 65.8969C40.2188 68.6813 40.2188 71.1562 39.6 73.3219L39.2906 74.25C39.2906 74.5594 38.9813 74.8688 38.9813 74.8688C38.3625 76.1062 37.7438 77.0344 36.8156 78.2719C34.0312 81.3656 30.0094 82.6031 28.1531 81.675C26.2969 80.7469 27.225 76.1062 30.6281 72.7031C34.3406 68.9906 39.2906 66.5156 39.2906 66.5156L39.6 65.8969ZM80.4375 21.0375C78.2719 12.375 63.7313 9.28125 49.8094 14.2312C41.7656 17.325 32.7938 21.9656 26.2969 27.8438C18.5625 34.9594 17.6344 41.1469 17.9438 43.6219C19.8 52.5938 32.175 58.7812 37.4344 63.1125C35.8875 63.7313 24.75 69.3 22.275 75.1781C19.4906 81.3656 22.5844 85.6969 24.75 86.0062C31.2469 87.8625 38.0531 84.4594 41.4562 79.2C44.8594 73.9406 44.55 67.4437 43.0031 64.0406C45.4098 63.2974 47.968 63.1908 50.4281 63.7313C59.0906 64.6594 60.9469 70.2281 60.3281 72.3937C59.7094 74.5594 58.1625 75.7969 57.5438 76.4156C56.925 76.725 56.6156 77.0344 56.925 77.0344C56.925 77.3438 57.2344 77.3438 57.8531 77.3438C58.4719 77.3438 62.4937 75.4875 62.4937 71.1562C62.8031 65.8969 57.5437 60.0187 48.5719 60.0187C44.8594 60.0187 42.3844 60.3281 40.8375 60.9469C40.8375 60.6375 40.5281 60.6375 40.5281 60.6375C34.9594 54.7594 24.75 50.4281 25.0594 42.3844C25.0594 39.6 26.2969 31.8656 44.8594 22.5844C60.0187 14.85 72.3938 17.0156 74.5594 21.6562C77.6531 28.1531 68.0625 40.5281 52.2844 42.3844C46.0969 43.0031 43.0031 40.8375 42.3844 39.9094C41.4562 38.9813 41.4563 38.9813 41.1469 38.9813C40.5281 39.2906 40.8375 39.9094 41.1469 40.5281C41.7656 41.7656 43.6219 43.9312 47.025 45.1688C49.8094 46.0969 56.925 46.7156 65.5875 43.3125C75.1781 39.6 82.6031 29.3906 80.4375 20.7281V21.0375Z" fill="#CD6799"/>
</svg>
