<svg width="99" height="99" viewBox="0 0 99 99" fill="none" xmlns="http://www.w3.org/2000/svg">
<circle cx="49.5" cy="49.5" r="49.5" fill="white"/>
<circle cx="49.5" cy="49.5" r="49.5" fill="white"/>
<g clip-path="url(#clip0_78_186)">
<path d="M33.501 49.6334L35.9018 57.4451C36.4412 59.2187 36.6662 60.4569 36.5761 61.1626C37.8892 57.636 38.8066 53.7929 39.3286 49.6334H42.2155C40.9742 56.4052 39.3369 61.3261 37.3047 64.3959C35.7213 66.7616 33.9867 67.9443 32.0978 67.9443C31.5942 67.9443 30.9733 67.7917 30.2365 67.4888V65.8564C30.5965 65.9093 31.0188 65.9376 31.5045 65.9376C32.3857 65.9376 33.0959 65.6927 33.6363 65.2039C34.2832 64.6084 34.6071 63.939 34.6071 63.1971C34.6071 62.6905 34.3545 61.6509 33.8517 60.0783L30.5065 49.6334H33.501ZM15.1262 44.832L19.5237 58.2865H19.5508L23.9753 44.832H27.5902C28.3817 51.5045 28.8492 57.6096 28.9927 63.1434H25.945C25.8378 57.9704 25.5408 53.1061 25.0551 48.5495H25.0285L20.3876 63.1434H18.0666L13.4538 48.5495H13.4266C13.0844 52.9255 12.869 57.7898 12.7792 63.1434H10C10.1796 56.6325 10.6291 50.5292 11.3484 44.832H15.1262Z" fill="#00758F"/>
<path d="M64.3894 44.5603C69.1196 44.5603 71.4848 47.5908 71.4848 53.6488C71.4848 56.9408 70.7735 59.4274 69.3523 61.1073C69.0962 61.4143 68.813 61.6795 68.5149 61.9252L71.8624 63.585L71.8592 63.5848L70.6706 65.643L66.3113 63.0923C65.5887 63.3069 64.7936 63.4142 63.9272 63.4142C61.6046 63.4142 59.8697 62.7354 58.7226 61.3795C57.4636 59.8796 56.8344 57.5183 56.8344 54.2996C56.8344 51.0262 57.5444 48.549 58.9661 46.867C60.261 45.3283 62.069 44.5603 64.3894 44.5603ZM49.904 44.5867C51.5946 44.5867 53.1319 45.0404 54.5165 45.9445L53.8132 47.516C52.6284 47.011 51.4602 46.7574 50.3082 46.7574C49.3735 46.7574 48.6532 46.983 48.1512 47.437C47.6463 47.8869 47.334 48.4659 47.334 49.1718C47.334 50.2564 48.1046 51.197 49.5273 51.9917C49.9934 52.2472 50.4579 52.5056 50.9208 52.767L51.0269 52.8269L51.0802 52.8569L51.1865 52.9168L51.2396 52.9468L51.3457 53.0069C52.4227 53.6157 53.4361 54.1969 53.4361 54.1969C54.8587 55.2096 55.5679 56.2893 55.5679 58.0675C55.5679 59.6205 55.0004 60.8954 53.8691 61.8929C52.737 62.8859 51.2161 63.3838 49.3115 63.3838C47.5301 63.3838 45.8037 62.8107 44.1314 61.6741L44.9137 60.1011C46.3528 60.8245 47.6551 61.1858 48.8245 61.1858C49.9212 61.1858 50.7798 60.9402 51.4008 60.4553C52.0206 59.9668 52.392 59.2856 52.392 58.4217C52.392 57.3344 51.6378 56.405 50.2542 55.6253C49.8212 55.3854 49.3894 55.1431 48.9589 54.8986L48.8529 54.8384C48.6582 54.7281 48.4621 54.6163 48.27 54.507L48.1658 54.4475C47.2315 53.9147 46.4238 53.4491 46.4238 53.4491C45.0407 52.4345 44.3471 51.346 44.3471 49.5524C44.3471 48.069 44.8643 46.8701 45.8972 45.9579C46.9325 45.0438 48.2683 44.5867 49.904 44.5867ZM77.044 44.8318V60.8907H82.7897V63.1432H74.13V44.832L77.044 44.8318ZM85.9824 60.8977V61.2783H85.3507V63.1412H84.8678V61.2783H84.2116V60.8977H85.9824ZM87.1489 60.8977L87.7555 62.427L88.3126 60.8977H88.9972V63.1412H88.5421V61.4338L87.9079 63.1412H87.5797L86.9445 61.4338H86.9201V63.1412H86.4894V60.8977H87.1489ZM64.0919 46.8122C61.3043 46.8122 59.9098 49.1192 59.9098 53.7301C59.9098 56.3713 60.2793 58.2865 61.017 59.4802C61.7003 60.585 62.7703 61.1363 64.2273 61.1363C67.0149 61.1363 68.4092 58.8113 68.4092 54.1636C68.4092 51.5594 68.0397 49.6606 67.3029 48.4662C66.6189 47.3639 65.5494 46.8122 64.092 46.8122" fill="#F29111"/>
<path d="M56.7856 15.1346C57.7103 12.8561 60.9436 14.5816 62.1984 15.3776C62.5059 15.5767 62.8586 15.9974 63.2112 16.1529C63.7612 16.1746 64.3108 16.2177 64.8618 16.2408C65.8953 16.4843 66.8634 16.6833 67.6777 17.1484C71.4623 19.3835 73.926 21.661 76.1934 25.4231C76.6779 26.2199 76.92 27.0822 77.3157 27.9445C77.865 29.2299 78.4822 30.5791 79.1198 31.7945C79.4052 32.3707 79.626 33.0114 80.0224 33.498C80.1772 33.7205 80.6168 33.7861 80.8795 33.919C81.606 34.2961 82.4861 34.5824 83.1693 35.0249C84.4452 35.8227 85.6788 36.7733 86.8002 37.7466C87.2182 38.1222 87.503 38.654 87.9013 39.0514V39.2519C87.5478 39.3607 87.1955 39.4721 86.843 39.5614C86.0729 39.7597 85.3907 39.7148 84.6436 39.9134C84.182 40.0477 83.6087 40.2248 83.1246 40.2699L83.1693 40.315C83.4541 41.1312 84.9953 41.795 85.7001 42.2832C86.5561 42.9027 87.3494 43.6541 87.9878 44.517C88.2083 44.7372 88.4288 44.9375 88.6482 45.1571C88.8016 45.3796 88.8448 45.6674 89 45.8657V45.9329C88.8281 45.8721 88.7045 45.756 88.5874 45.6347L88.5175 45.5615C88.4476 45.4888 88.3771 45.4173 88.2967 45.3584C87.811 45.0257 87.3287 44.6278 86.843 44.3185C86.0079 43.7871 85.0394 43.4787 84.182 42.9454C83.6972 42.6358 83.235 42.2832 82.7729 41.9288C82.354 41.6183 81.8927 41.022 81.6294 40.5795C81.4744 40.335 81.4531 40.0477 81.2759 39.8708C81.3076 39.5754 81.5774 39.4877 81.8498 39.4156L81.9124 39.399C82.0064 39.3746 82.0983 39.3501 82.1786 39.3178C83.3225 38.8307 84.6864 38.654 86.4475 38.6983C86.3811 38.2548 85.2807 37.7023 84.9294 37.4368C84.2242 36.9271 83.4776 36.3953 82.7296 35.9314C82.3332 35.6885 81.6501 35.5112 81.211 35.3127C80.6168 35.0691 79.2961 34.8258 78.9669 34.3619C78.4076 33.6306 78.0058 32.7584 77.6157 31.8774L77.5095 31.637C77.4741 31.5568 77.4386 31.4767 77.4031 31.3967C76.942 30.3357 76.3693 29.2296 75.9072 28.1432C75.6655 27.6133 75.5546 27.1482 75.29 26.6399C73.6842 23.5209 71.3076 20.9095 68.4261 19.0731C67.4792 18.4755 66.4233 17.9225 65.2578 17.5467C64.5972 17.3466 63.8044 17.4572 63.1007 17.3038H62.6375C62.2422 17.192 61.9121 16.7718 61.6037 16.5502C60.9225 16.0864 60.2402 15.7749 59.4255 15.4439C59.14 15.3112 58.3249 15.002 58.0404 15.2454C57.8642 15.2898 57.7748 15.3565 57.7315 15.5338C57.5562 15.7984 57.7103 16.197 57.8194 16.441C58.1499 17.1481 58.6116 17.5683 59.0306 18.1659C59.4034 18.6958 59.8665 19.2934 60.1308 19.8696C60.7011 21.1082 60.9666 22.4805 61.4951 23.7189C61.691 24.1847 62.001 24.7146 62.2863 25.1347C62.5281 25.4681 62.9677 25.7092 63.1007 26.1313C63.3658 26.5738 62.7038 28.034 62.5506 28.4977C61.9774 30.3122 62.0885 32.8344 62.7486 34.4072L62.7838 34.4901L62.8189 34.5742C63.06 35.1502 63.3179 35.7705 63.9587 35.9316C64.0029 35.8876 63.9587 35.9107 64.0462 35.8876C64.2013 34.6703 64.2449 33.4979 64.6634 32.5454C64.9052 31.9498 65.388 31.5288 65.7189 31.0427C65.9396 31.1751 65.9396 31.5745 66.0711 31.8387C66.3574 32.5242 66.6649 33.2757 67.018 33.9631C67.7426 35.3789 68.5579 36.7515 69.4816 37.9899C69.791 38.4323 70.23 38.9192 70.6259 39.3177C70.8023 39.4719 70.9998 39.561 71.1323 39.7596H71.1755V39.8264C70.5154 39.5824 70.097 38.8976 69.5705 38.4978C68.5793 37.7462 67.3923 36.6177 66.7091 35.5347C66.4233 34.913 66.1144 34.3172 65.8064 33.6986V33.6538C65.6748 33.8305 65.7189 34.006 65.6531 34.2734C65.3673 35.3789 65.5873 36.6401 64.5972 37.0377C63.4749 37.5035 62.6376 36.2862 62.2863 35.7331C61.1636 33.8971 60.8561 30.7997 61.6478 28.2995C61.8237 27.746 61.8476 27.0822 62.1547 26.6403C62.0883 26.2408 61.7813 26.1316 61.6037 25.8868C61.2957 25.4684 61.032 24.981 60.7909 24.5164C60.3277 23.6088 59.9981 22.5243 59.6464 21.5509C59.4918 21.1534 59.4476 20.7543 59.2934 20.378C59.0305 19.8037 58.5458 19.2275 58.172 18.7194C57.6657 17.989 56.1913 16.5736 56.7856 15.1346ZM64.0024 19.4693C64.0612 19.5284 64.1322 19.5801 64.2056 19.631L64.2942 19.692C64.4122 19.774 64.5265 19.8603 64.5966 19.9779C64.7077 20.1336 64.7284 20.2872 64.8614 20.4432C64.8614 20.975 64.7077 21.3285 64.3974 21.5489C64.3974 21.5489 64.3763 21.5721 64.3545 21.5937C64.1786 21.2393 64.0245 20.8866 63.8473 20.5325C63.6291 20.2233 63.3207 19.9781 63.143 19.6248H63.1002V19.5804C63.3658 19.5147 63.6291 19.4693 64.0024 19.4693Z" fill="#00758F"/>
</g>
<defs>
<clipPath id="clip0_78_186">
<rect width="79" height="54" fill="white" transform="translate(10 14)"/>
</clipPath>
</defs>
</svg>
